<?xml version="1.0" standalone="no"?><!DOCTYPE svg PUBLIC "-//W3C//DTD SVG 1.1//EN" "http://www.w3.org/Graphics/SVG/1.1/DTD/svg11.dtd"><svg t="1710170747612" class="icon" viewBox="0 0 1459 1024" version="1.1" xmlns="http://www.w3.org/2000/svg" p-id="1886" xmlns:xlink="http://www.w3.org/1999/xlink" width="284.9609375" height="200"><path d="M775.511002 672.860636l-11.89242-3.755502c-8.762836-3.129584-8.136919-16.273839-10.01467-43.81418h-61.96577c-1.877751 27.540342-1.251834 40.684597-10.01467 43.81418l-11.892421 3.755502v16.899755h106.405868v-16.899755z" fill="#BBC0C5" p-id="1887"></path><path d="M780.518337 694.141809h-115.168704v-25.036675h2.503668l6.885085-2.503667 5.633252-1.877751c4.381418-1.251834 5.007335-10.01467 6.259169-27.540342V620.283619H757.359413v16.273838c1.251834 17.525672 1.877751 26.288509 6.259169 27.540343l5.007335 1.87775 6.885085 2.503668h2.503668z m-105.779951-9.388753h96.391198v-9.388753l-3.129584-1.251834-5.633252-1.87775c-10.01467-3.129584-11.266504-15.022005-12.518337-35.677262v-7.511002h-53.202934v7.511002c-1.251834 20.655257-2.503667 32.547677-12.518338 35.677262l-5.633251 1.87775h-3.129585z" fill="#284356" p-id="1888"></path><path d="M689.760391 655.334963h66.973105c-0.625917-5.633252-1.251834-12.518337-1.87775-21.90709h-63.217604c-0.625917 9.388753-1.251834 16.899756-1.877751 21.90709z" fill="#2D2D2E" p-id="1889"></path><path d="M775.511002 672.860636l-11.89242-3.755502c-8.762836-3.129584-8.136919-16.273839-10.01467-43.81418h-61.96577c-1.877751 27.540342-1.251834 40.684597-10.01467 43.81418l-11.892421 3.755502v16.899755h106.405868v-16.899755z" fill="#FFFFFF" p-id="1890"></path><path d="M782.396088 696.01956h-118.298288v-28.166259l3.755501-1.251834 6.885085-2.503667 5.633252-1.877751c3.129584-1.251834 4.381418-11.892421 5.007335-26.288509v-16.899755h73.232274v18.151589c1.251834 14.396088 1.877751 25.036675 5.007335 26.288509l5.007335 1.87775 7.511002 2.503668 3.755502 1.251833z m-105.779951-12.518338H769.877751V676.616137h-1.877751l-5.633252-1.877751c-11.266504-3.755501-11.892421-15.647922-13.770171-36.929095v-6.259169h-50.07335v6.259169c-1.251834 21.281174-2.503667 33.173594-13.770171 36.929095l-5.633252 1.877751h-1.87775z" fill="#556E7F" p-id="1891"></path><path d="M577.095355 443.149144a5.007335 5.007335 0 0 0-5.007335 5.007335v179.638142a5.007335 5.007335 0 0 0 5.007335 5.007335h291.677261a5.007335 5.007335 0 0 0 5.007335-5.007335V448.782396a5.007335 5.007335 0 0 0-5.007335-5.007335z" fill="#FFFFFF" p-id="1892"></path><path d="M868.772616 639.687042H577.095355a11.266504 11.266504 0 0 1-11.266504-11.266504V448.782396a11.266504 11.266504 0 0 1 11.266504-11.266504h291.677261a11.266504 11.266504 0 0 1 11.266504 11.266504v179.638142a11.266504 11.266504 0 0 1-11.266504 11.266504z m-290.425428-12.518338h289.173594V449.408313H578.347188z" fill="#556E7F" p-id="1893"></path><path d="M868.772616 443.149144H577.095355a5.007335 5.007335 0 0 0-5.007335 5.007335v153.97555h301.691931V448.782396a5.007335 5.007335 0 0 0-5.007335-5.633252z" fill="#79858C" p-id="1894"></path><path d="M572.08802 602.132029h301.691931" fill="#5B6D7B" p-id="1895"></path><path d="M572.08802 597.750611h301.691931v9.388753H572.08802z" fill="#556E7F" p-id="1896"></path><path d="M588.361858 460.674817h269.144254v124.933007H588.361858z" fill="#FFFFFF" p-id="1897"></path><path d="M637.809291 585.232274l125.183374-124.557457h-38.180929L600.254279 585.232274h37.555012z" fill="#FFFFFF" p-id="1898"></path><path d="M693.515892 585.232274l124.557458-124.557457h-27.540343l-125.183374 124.557457h28.166259z" fill="#FFFFFF" p-id="1899"></path><path d="M868.772616 638.435208H577.095355a10.01467 10.01467 0 0 1-10.01467-10.01467V448.782396a10.01467 10.01467 0 0 1 10.01467-10.01467h291.677261a10.01467 10.01467 0 0 1 10.01467 10.01467v179.638142a10.01467 10.01467 0 0 1-10.01467 10.01467zM577.095355 448.156479h-0.625917v179.638142h291.677261V448.782396z" fill="#556E7F" p-id="1900"></path><path d="M505.740831 714.797066l809.936431 0 0 249.177506-809.936431 0 0-249.177506Z" fill="#FFFFFF" p-id="1901"></path><path d="M1307.540342 970.171149H514.503667a14.396088 14.396088 0 0 1-14.396088-14.396088v-232.841076a14.396088 14.396088 0 0 1 14.396088-14.396088h793.036675a14.396088 14.396088 0 0 1 14.396088 14.396088v232.215159a14.396088 14.396088 0 0 1-14.396088 15.022005zM514.503667 721.056235a1.877751 1.877751 0 0 0-1.87775 1.87775v232.215159a1.877751 1.877751 0 0 0 1.87775 1.877751h793.036675a1.877751 1.877751 0 0 0 1.877751-1.877751v-232.215159a1.877751 1.877751 0 0 0-1.877751-1.87775z" fill="#556E7F" p-id="1902"></path><path d="M1220.537897 719.178484h73.858191v295.870905H1220.537897z" fill="#FFFFFF" p-id="1903"></path><path d="M1300.655257 1020.870416H1214.278729v-307.951101h86.376528z m-73.858191-12.518338h61.339853v-282.914425H1226.797066z" fill="#556E7F" p-id="1904"></path><path d="M525.770171 719.178484h73.858191v295.870905H525.770171z" fill="#FFFFFF" p-id="1905"></path><path d="M606.513447 1020.870416H519.511002v-307.951101h87.002445zM532.02934 1008.352078h61.339853v-282.914425H532.02934z" fill="#556E7F" p-id="1906"></path><path d="M457.545232 696.645477l915.090465 0 0 34.237653-915.090465 0 0-34.237653Z" fill="#F4ECDC" p-id="1907"></path><path d="M1366.376528 737.330073H464.430318a13.144254 13.144254 0 0 1-13.144254-13.144254v-20.655257a13.144254 13.144254 0 0 1 13.144254-13.144254h901.94621a13.144254 13.144254 0 0 1 13.144254 13.144254v20.655257a13.144254 13.144254 0 0 1-13.144254 13.144254z m-901.94621-34.425428h-0.625917v20.655257h902.572127v-20.655257H464.430318z" fill="#556E7F" p-id="1908"></path><path d="M103.9022 240.352078h314.210269v766.435208H103.9022z" fill="#FFFFFF" p-id="1909"></path><path d="M424.371638 1012.733496H97.643032V234.09291h326.728606z m-314.210269-12.518337h301.691932V246.611247H110.161369z" fill="#556E7F" p-id="1910"></path><path d="M424.371638 488.215159l1.251834-252.244499h-15.647922v252.244499H110.161369V240.977995h-13.144254l-0.625917 769.251834h13.770171v-253.496333h299.814181v253.496333h15.022005v-254.12225l-0.625917-267.89242z" fill="#FFFFFF" p-id="1911"></path><path d="M114.542787 1015.237164h-22.533007V236.596577h22.533007v247.237164h290.425428V230.963325h24.410758l-1.251834 256.625917V1014.611247h-22.533007v-253.496333H114.542787z m-13.144254-9.388753h3.755501V751.726161h309.828851v253.496333h5.633252V488.215159l1.251834-247.237164h-5.633252v252.244499H105.154034V245.98533h-3.755501z" fill="#284356" p-id="1912"></path><path d="M110.161369 503.237164h299.814181v237.47286H110.161369z" fill="#FFFFFF" p-id="1913"></path><path d="M414.982885 745.466993H105.154034V498.855746h309.828851z m-299.814181-9.388753h290.425428V508.244499H114.542787z" fill="#284356" p-id="1914"></path><path d="M114.542787 1015.237164h-22.533007V236.596577h22.533007v247.237164h290.425428V230.963325h24.410758l-1.251834 256.625917V1014.611247h-22.533007v-253.496333H114.542787z m-13.144254-9.388753h3.755501V751.726161h309.828851v253.496333h5.633252V488.215159l1.251834-247.237164h-5.633252v252.244499H105.154034V245.98533h-3.755501zM414.982885 745.466993H105.154034V498.855746h309.828851z m-299.814181-9.388753h290.425428V508.244499H114.542787z" fill="#556E7F" p-id="1915"></path><path d="M86.376528 993.95599l349.261614 0 0 21.093399-349.261614 0 0-21.093399Z" fill="#D5DDE0" p-id="1916"></path><path d="M430.00489 1020.870416h-337.99511a11.892421 11.892421 0 0 1-11.892421-11.892421v-10.01467a11.892421 11.892421 0 0 1 11.892421-11.89242h337.99511a11.892421 11.892421 0 0 1 11.892421 11.89242v10.01467a11.892421 11.892421 0 0 1-11.892421 11.892421z m-337.369193-12.518338h336.743276v-8.762836H92.635697z" fill="#556E7F" p-id="1917"></path><path d="M87.628362 230.337408l346.757946 0 0 21.093399-346.757946 0 0-21.093399Z" fill="#F4ECDC" p-id="1918"></path><path d="M428.127139 257.877751H93.887531a12.518337 12.518337 0 0 1-12.518338-12.518338v-8.762836a12.518337 12.518337 0 0 1 12.518338-12.518337h334.239608a12.518337 12.518337 0 0 1 12.518338 12.518337V244.733496a12.518337 12.518337 0 0 1-12.518338 13.144255zM93.887531 236.596577V244.733496h334.239608v-8.136919z" fill="#556E7F" p-id="1919"></path><path d="M1071.569682 95.139364m-88.254279 0a88.254279 88.254279 0 1 0 176.508558 0 88.254279 88.254279 0 1 0-176.508558 0Z" fill="#FFFFFF" p-id="1920"></path><path d="M1071.569682 189.026895A94.513447 94.513447 0 1 1 1166.08313 94.513447a94.513447 94.513447 0 0 1-94.513448 94.513448z m0-175.882641a81.99511 81.99511 0 1 0 81.99511 81.99511A81.99511 81.99511 0 0 0 1071.569682 13.144254z" fill="#556E7F" p-id="1921"></path><path d="M1071.569682 95.139364m-71.354523 0a71.354523 71.354523 0 1 0 142.709046 0 71.354523 71.354523 0 1 0-142.709046 0Z" fill="#F4ECDC" p-id="1922"></path><path d="M1121.643032 92.00978h14.396088v5.257702h-14.396088zM1069.066015 145.212714h5.007335v14.208313h-5.007335zM1007.100244 92.00978h14.396089v5.257702h-14.396089zM1069.066015 30.669927h5.007335v14.208313h-5.007335z" fill="#5B6D7B" p-id="1923"></path><path d="M1096.368148 45.772299l2.511232-4.332103 4.548708 2.636793-2.511232 4.332103-4.548708-2.636793Z" fill="#5B6D7B" p-id="1924"></path><path d="M1117.317072 65.700348l4.336479-2.503667 2.628851 4.553303-4.336479 2.503667-2.628851-4.553303Z" fill="#5B6D7B" p-id="1925"></path><path d="M1119.139364 125.183374a1.877751 1.877751 0 0 1-0.625917-2.503667l1.251834-1.877751a1.877751 1.877751 0 0 1 2.503668-0.625917l1.87775 1.251834a1.877751 1.877751 0 0 1 0.625917 2.503667l-1.251834 1.877751a1.877751 1.877751 0 0 1-2.503667 0.625917z" fill="#5B6D7B" p-id="1926"></path><path d="M1096.414832 143.149556l4.340842-2.496095 2.6209 4.557884-4.340843 2.496095-2.620899-4.557884Z" fill="#5B6D7B" p-id="1927"></path><path d="M1039.359711 145.447743l2.496095-4.340842 4.557884 2.6209-2.496095 4.340842-4.557884-2.6209Z" fill="#5B6D7B" p-id="1928"></path><path d="M1021.496333 120.801956a1.877751 1.877751 0 0 1 2.503667 0.625917l1.251834 1.87775a1.877751 1.877751 0 0 1-0.625917 2.503668l-1.877751 1.251834a1.877751 1.877751 0 0 1-2.503667-0.625917l-1.251834-1.877751a1.877751 1.877751 0 0 1 0.625917-2.503667z" fill="#5B6D7B" p-id="1929"></path><path d="M1018.738759 67.705575l2.496095-4.340843 4.503624 2.589699-2.496095 4.340842-4.503624-2.589698Z" fill="#5B6D7B" p-id="1930"></path><path d="M1039.323263 44.097019l4.332102-2.511233 2.636794 4.548709-4.332103 2.511232-2.636793-4.548708Z" fill="#5B6D7B" p-id="1931"></path><path d="M1062.806846 103.9022l51.9511-51.9511" fill="#5B6D7B" p-id="1932"></path><path d="M1062.806846 107.031785h-2.503668a3.129584 3.129584 0 0 1 0-4.381418l51.951101-51.9511a3.129584 3.129584 0 1 1 4.381418 4.381418l-51.9511 51.9511z" fill="#284356" p-id="1933"></path><path d="M1045.281174 67.599022l36.303178 36.303178" fill="#5B6D7B" p-id="1934"></path><path d="M1081.584352 107.031785h-2.503667l-36.303179-36.303179a3.129584 3.129584 0 0 1 4.381418-4.381418l36.303179 36.303179a3.129584 3.129584 0 0 1 0 4.381418z" fill="#284356" p-id="1935"></path><path d="M1071.569682 95.139364m-6.259169 0a6.259169 6.259169 0 1 0 12.518338 0 6.259169 6.259169 0 1 0-12.518338 0Z" fill="#5B6D7B" p-id="1936"></path><path d="M1071.569682 104.528117a9.388753 9.388753 0 1 1 9.388753-9.388753 9.388753 9.388753 0 0 1-9.388753 9.388753z m0-12.518337a3.129584 3.129584 0 1 0 3.129585 3.129584 3.129584 3.129584 0 0 0-3.129585-3.755501z" fill="#284356" p-id="1937"></path><path d="M1448.997555 1024H9.388753a9.388753 9.388753 0 0 1 0-18.777506h1439.608802a9.388753 9.388753 0 0 1 0 18.777506z" fill="#556E7F" p-id="1938"></path><path d="M1024.625917 987.696822v-21.281174" fill="#3C505C" p-id="1939"></path><path d="M1020.244499 966.415648h9.388753v21.218582H1020.244499z" fill="#556E7F" p-id="1940"></path><path d="M1016.488998 987.696822l16.273838 0 0 26.914425-16.273838 0 0-26.914425Z" fill="#D5DDE0" p-id="1941"></path><path d="M1029.007335 1020.870416h-8.136919a10.01467 10.01467 0 0 1-10.01467-10.01467v-18.777506a10.01467 10.01467 0 0 1 10.01467-10.01467h8.136919a10.01467 10.01467 0 0 1 10.01467 10.01467v18.777506a10.01467 10.01467 0 0 1-10.01467 10.01467z m-6.259169-12.518338h3.755501v-14.396088h-3.755501z" fill="#556E7F" p-id="1942"></path><path d="M634.679707 952.01956a25.036675 25.036675 0 0 1-25.036675-25.036675v-155.853301a25.036675 25.036675 0 0 1 25.036675-25.036674h534.533007a25.036675 25.036675 0 0 1 0 50.073349h-509.496333V926.982885a25.036675 25.036675 0 0 1-25.036674 25.036675z" fill="#E2F1F7" p-id="1943"></path><path d="M1012.733496 882.542787l23.784841 0 0 86.06357-23.784841 0 0-86.06357Z" fill="#C7D0D3" p-id="1944"></path><path d="M1032.762836 974.552567h-15.647922a10.01467 10.01467 0 0 1-10.01467-10.01467v-78.239608a10.01467 10.01467 0 0 1 10.01467-10.01467h15.647922a10.01467 10.01467 0 0 1 10.01467 10.01467V964.537897a10.01467 10.01467 0 0 1-10.01467 10.01467z m-13.770171-12.518337h11.266504v-73.232274h-11.266504z" fill="#556E7F" p-id="1945"></path><path d="M1013.98533 824.332518h21.907091v33.799511H1013.98533z" fill="#C7D0D3" p-id="1946"></path><path d="M1042.151589 864.391198H1007.726161v-46.317848h34.425428z m-21.90709-12.518337h9.388753v-21.281174H1020.244499zM1129.154034 824.958435h-18.151589v-9.388753h18.151589a8.136919 8.136919 0 0 0 8.13692-8.136919v-69.476773h9.388753v69.476773a17.525672 17.525672 0 0 1-17.525673 17.525672z" fill="#556E7F" p-id="1947"></path><path d="M1132.283619 696.645477l19.403423 0 0 50.135941-19.403423 0 0-50.135941Z" fill="#D5DDE0" p-id="1948"></path><path d="M1143.550122 752.977995h-3.755501a14.396088 14.396088 0 0 1-14.396088-14.396088v-34.425428a14.396088 14.396088 0 0 1 14.396088-14.396088h3.755501a14.396088 14.396088 0 0 1 14.396088 14.396088v34.425428a14.396088 14.396088 0 0 1-14.396088 14.396088z m-3.755501-50.07335a1.877751 1.877751 0 0 0-1.877751 1.877751v34.425428a1.877751 1.877751 0 0 0 1.877751 1.877751h3.755501a1.877751 1.877751 0 0 0 1.877751-1.877751v-34.425428a1.877751 1.877751 0 0 0-1.877751-1.877751zM937.623472 824.958435h-18.151589a17.525672 17.525672 0 0 1-17.525673-17.525672v-69.476773h9.388753v69.476773a8.136919 8.136919 0 0 0 8.13692 8.136919h18.151589z" fill="#556E7F" p-id="1949"></path><path d="M896.938875 696.645477l19.403423 0 0 50.135941-19.403423 0 0-50.135941Z" fill="#D5DDE0" p-id="1950"></path><path d="M908.831296 752.977995h-3.755501a14.396088 14.396088 0 0 1-14.396088-14.396088v-34.425428a14.396088 14.396088 0 0 1 14.396088-14.396088h3.755501a14.396088 14.396088 0 0 1 14.396088 14.396088v34.425428a14.396088 14.396088 0 0 1-14.396088 14.396088z m-3.755501-50.07335a1.877751 1.877751 0 0 0-1.877751 1.877751v34.425428a1.877751 1.877751 0 0 0 1.877751 1.877751h3.755501a1.877751 1.877751 0 0 0 1.87775-1.877751v-34.425428a1.877751 1.877751 0 0 0-1.87775-1.877751z" fill="#556E7F" p-id="1951"></path><path d="M1111.002445 689.134474l-20.655257-125.809291a30.04401 30.04401 0 0 0-18.777506-24.410758 165.242054 165.242054 0 0 0-92.635697 0 30.04401 30.04401 0 0 0-18.777506 24.410758L938.875306 689.134474a45.691932 45.691932 0 0 0 45.066014 52.577017h81.369193a45.691932 45.691932 0 0 0 45.691932-52.577017z" fill="#C0EAFF" p-id="1952"></path><path d="M1065.310513 747.97066h-81.369193a51.9511 51.9511 0 0 1-51.325183-60.088019l20.655257-125.809291A36.303178 36.303178 0 0 1 976.430318 532.655257a171.501222 171.501222 0 0 1 97.017115 0 36.303178 36.303178 0 0 1 23.158924 29.418093l20.655257 125.809291a51.9511 51.9511 0 0 1-51.325184 60.088019z m-40.684596-209.682151a144.586797 144.586797 0 0 0-44.440098 6.259168 24.410758 24.410758 0 0 0-15.022005 19.403423l-20.02934 125.809291a39.432763 39.432763 0 0 0 39.432763 45.066015h81.369193a39.432763 39.432763 0 0 0 39.432763-45.066015L1084.08802 563.9511a24.410758 24.410758 0 0 0-15.022005-19.403423 144.586797 144.586797 0 0 0-44.440098-6.885085z" fill="#556E7F" p-id="1953"></path><path d="M1043.403423 616.528117l8.762836 8.762837a20.02934 20.02934 0 0 1 5.633252 13.770171v101.398533h-18.777506z" fill="#A6C5D1" p-id="1954"></path><path d="M1065.310513 747.97066h-81.369193a51.9511 51.9511 0 0 1-51.325183-60.088019l20.655257-125.809291A36.303178 36.303178 0 0 1 976.430318 532.655257a171.501222 171.501222 0 0 1 97.017115 0 36.303178 36.303178 0 0 1 23.158924 29.418093l20.655257 125.809291a51.9511 51.9511 0 0 1-51.325184 60.088019z m-40.684596-209.682151a144.586797 144.586797 0 0 0-44.440098 6.259168 24.410758 24.410758 0 0 0-15.022005 19.403423l-20.02934 125.809291a39.432763 39.432763 0 0 0 39.432763 45.066015h81.369193a39.432763 39.432763 0 0 0 39.432763-45.066015L1084.08802 563.9511a24.410758 24.410758 0 0 0-15.022005-19.403423 144.586797 144.586797 0 0 0-44.440098-6.885085z" fill="#556E7F" p-id="1955"></path><path d="M925.105134 796.792176a18.777506 18.777506 0 0 1 13.770172-18.777506 376.176039 376.176039 0 0 1 85.750611-8.762836 376.176039 376.176039 0 0 1 85.750611 8.762836 18.777506 18.777506 0 0 1 13.770171 18.777506v15.647922a15.022005 15.022005 0 0 1-15.022005 15.022005h-169.623472a15.022005 15.022005 0 0 1-15.022004-15.022005z" fill="#EA813B" p-id="1956"></path><path d="M925.105134 799.92176v13.144255a15.022005 15.022005 0 0 0 15.022005 15.022005h170.249389a15.022005 15.022005 0 0 0 15.022005-15.022005v-13.144255z" fill="#5B6D7B" p-id="1957"></path><path d="M1109.750611 832.469438h-170.249389a19.403423 19.403423 0 0 1-19.403422-19.403423v-18.15159h209.682151v18.15159a19.403423 19.403423 0 0 1-20.02934 19.403423z m-180.264058-28.16626v8.762837a10.01467 10.01467 0 0 0 10.014669 10.01467h170.249389a10.01467 10.01467 0 0 0 10.01467-10.01467v-8.762837z" fill="#284356" p-id="1958"></path><path d="M925.105134 796.792176a18.777506 18.777506 0 0 1 13.770172-18.777506 376.176039 376.176039 0 0 1 85.750611-8.762836 376.176039 376.176039 0 0 1 85.750611 8.762836 18.777506 18.777506 0 0 1 13.770171 18.777506v15.647922a15.022005 15.022005 0 0 1-15.022005 15.022005h-169.623472a15.022005 15.022005 0 0 1-15.022004-15.022005z" fill="#C0EAFF" p-id="1959"></path><path d="M1109.750611 833.721271h-170.249389a21.281174 21.281174 0 0 1-21.281173-21.281173v-15.647922a25.036675 25.036675 0 0 1 18.777506-25.036675 381.183374 381.183374 0 0 1 87.628362-8.762836 381.183374 381.183374 0 0 1 87.628362 8.762836 25.036675 25.036675 0 0 1 18.777506 25.036675v15.647922a21.281174 21.281174 0 0 1-21.281174 21.281173z m-85.124694-58.210269a368.665037 368.665037 0 0 0-84.498778 8.762837 12.518337 12.518337 0 0 0-9.388753 12.518337v15.647922a8.762836 8.762836 0 0 0 8.762836 8.762836h170.249389a8.762836 8.762836 0 0 0 8.762836-8.762836v-15.647922a12.518337 12.518337 0 0 0-9.388753-12.518337 368.665037 368.665037 0 0 0-84.498777-8.762837z" fill="#556E7F" p-id="1960"></path><path d="M923.227384 1001.466993m-13.770171 0a13.770171 13.770171 0 1 0 27.540342 0 13.770171 13.770171 0 1 0-27.540342 0Z" fill="#D5DDE0" p-id="1961"></path><path d="M923.227384 1020.870416a20.02934 20.02934 0 1 1 20.02934-20.02934 20.02934 20.02934 0 0 1-20.02934 20.02934z m0-26.914426a7.511002 7.511002 0 1 0 7.511002 7.511003 7.511002 7.511002 0 0 0-7.511002-7.511003z" fill="#556E7F" p-id="1962"></path><path d="M1040.273839 856.254279v20.655256c0 19.403423 14.396088 28.792176 37.555012 40.05868 33.173594 16.273839 53.202934 28.792176 55.706601 47.569682a3.755501 3.755501 0 0 1-3.755501 3.755502h-8.136919a5.007335 5.007335 0 0 1-4.381418-3.755502c-2.503667-8.762836-14.396088-21.90709-45.066015-33.799511s-46.317848-25.662592-48.195599-31.295843c-1.877751 5.633252-12.518337 16.899756-48.195599 31.295843s-42.562347 25.036675-45.066015 33.799511a5.007335 5.007335 0 0 1-4.381418 3.755502h-7.511002a3.755501 3.755501 0 0 1-3.755501-3.755502c2.503667-18.777506 22.533007-31.92176 55.706601-47.569682 23.158924-11.266504 37.555012-20.655257 37.555012-40.05868v-20.655256z" fill="#D5DDE0" p-id="1963"></path><path d="M1130.405868 974.552567h-8.136919a11.266504 11.266504 0 0 1-10.640587-8.136919c-1.251834-3.755501-7.511002-16.899756-41.310514-30.04401s-38.806846-19.403423-45.691931-26.288508c-6.885086 6.885086-19.403423 15.647922-45.691932 26.288508s-40.05868 26.288509-41.310513 30.04401a11.266504 11.266504 0 0 1-10.640587 8.762836h-7.511002a10.01467 10.01467 0 0 1-7.511003-3.755501 9.388753 9.388753 0 0 1-2.503667-7.511003c2.503667-21.281174 23.784841-35.677262 59.462102-52.577017 23.784841-11.266504 34.425428-18.777506 34.425428-34.425428v-26.914425h43.814181v26.914425c0 15.022005 10.640587 23.158924 34.425428 34.425428 35.677262 16.899756 56.332518 31.295844 59.462103 52.577017a9.388753 9.388753 0 0 1-2.503668 7.511003 10.01467 10.01467 0 0 1-8.136919 3.129584z m-208.430318-9.388753z m201.545232-3.129584h3.755502c-3.755501-14.396088-21.90709-25.662592-51.325184-39.432763s-41.310513-21.90709-41.310513-45.691932v-14.396088h-18.777506v14.396088c0 23.784841-18.777506 34.425428-41.310514 45.691932s-47.569682 25.036675-51.325183 39.432763h3.755501c2.503667-8.136919 12.518337-23.158924 48.821516-37.555012s43.814181-26.914425 44.440098-27.540343l5.633252-17.525672 5.633251 17.525672c0 0.625917 4.381418 11.266504 44.440098 27.540343s45.066015 29.418093 47.569682 37.555012z" fill="#556E7F" p-id="1964"></path><path d="M923.227384 987.696822V970.797066" fill="#5B6D7B" p-id="1965"></path><path d="M918.845966 970.797066h9.388753v17.275306h-9.388753z" fill="#556E7F" p-id="1966"></path><path d="M1126.650367 1001.466993m-13.770171 0a13.770171 13.770171 0 1 0 27.540342 0 13.770171 13.770171 0 1 0-27.540342 0Z" fill="#D5DDE0" p-id="1967"></path><path d="M1126.650367 1020.870416a20.02934 20.02934 0 1 1 20.02934-20.02934 20.02934 20.02934 0 0 1-20.02934 20.02934z m0-26.914426a7.511002 7.511002 0 1 0 7.511002 7.511003 7.511002 7.511002 0 0 0-7.511002-7.511003z" fill="#556E7F" p-id="1968"></path><path d="M1126.650367 987.696822V970.797066" fill="#5B6D7B" p-id="1969"></path><path d="M1121.643032 970.797066h9.388753v17.275306h-9.388753z" fill="#556E7F" p-id="1970"></path><path d="M1039.647922 827.462103h-30.04401V626.542787a14.396088 14.396088 0 0 1 14.396088-14.396088h1.251834a14.396088 14.396088 0 0 1 14.396088 14.396088z" fill="#D5DDE0" p-id="1971"></path><path d="M1045.90709 833.721271h-42.562347V626.542787a20.655257 20.655257 0 0 1 20.655257-20.655256h1.251834a20.655257 20.655257 0 0 1 20.655256 20.655256z m-30.044009-12.518337h17.525672V626.542787a8.136919 8.136919 0 0 0-8.136919-8.136919h-1.251834a8.136919 8.136919 0 0 0-8.136919 8.136919z" fill="#556E7F" p-id="1972"></path><path d="M141.457213 475.070905a18.777506 18.777506 0 0 1-18.777506-18.777506V285.418093a18.777506 18.777506 0 0 1 18.777506-18.777506h230.963325a18.777506 18.777506 0 0 1 0 37.555012H160.234719v152.0978a18.777506 18.777506 0 0 1-18.777506 18.777506zM141.457213 725.437653a18.777506 18.777506 0 0 1-18.777506-18.777506V535.784841a18.777506 18.777506 0 0 1 18.777506-18.777506h230.963325a18.777506 18.777506 0 1 1 0 37.555012H160.234719v152.0978a18.777506 18.777506 0 0 1-18.777506 18.777506zM141.457213 982.06357a18.777506 18.777506 0 0 1-18.777506-18.777506v-170.875306a18.777506 18.777506 0 0 1 18.777506-18.777506h230.963325a18.777506 18.777506 0 0 1 0 37.555012H160.234719v152.0978a18.777506 18.777506 0 0 1-18.777506 18.777506z" fill="#E2F1F7" p-id="1973"></path><path d="M267.892421 357.398533h21.90709v125.308557h-21.90709z" fill="#AED6AE" p-id="1974"></path><path d="M312.332518 330.484108h-21.90709v150.845965h44.440098V330.484108h-22.533008z" fill="#EDC885" p-id="1975"></path><path d="M334.865526 318.591687H356.772616v162.800978h-21.90709z" fill="#EAEAEA" p-id="1976"></path><path d="M356.772616 330.484108h26.914426v151.346699H356.772616z" fill="#9ED9DB" p-id="1977"></path><path d="M383.687042 341.750611h21.90709v139.579462h-21.90709z" fill="#EDC885" p-id="1978"></path><path d="M267.892421 354.268949h21.90709v34.175061h-21.90709z" fill="#C2EFC3" p-id="1979"></path><path d="M290.425428 373.672372h44.440098v58.585819h-44.440098z" fill="#BFD7D8" p-id="1980"></path><path d="M342.376528 341.750611h6.259169v89.944255h-6.259169z" fill="#B43530" p-id="1981"></path><path d="M279.158924 717.300733v17.525673l-3.755501 3.755501-1.251834-4.381418v-15.022005l5.007335-1.877751z" fill="#D0D1D7" p-id="1982"></path><path d="M277.281174 721.056235l1.87775-3.755502H175.256724l-13.144255 6.259169 20.655257 4.381418 48.821516 0.625917 45.691932-7.511002z" fill="#9D8367" p-id="1983"></path><path d="M264.762836 722.308068l9.388753-5.633251-18.151589-1.251834 8.762836 6.885085z" fill="#7C69A4" p-id="1984"></path><path d="M260.381418 712.293399l3.129584 8.136919 8.762837-3.755501v-10.640587l-11.266504 1.251834-0.625917 5.007335z" fill="#D0D1D7" p-id="1985"></path><path d="M162.112469 738.581907h115.168705v-17.525672l-115.168705 2.503667v15.022005z" fill="#C0AD8A" p-id="1986"></path><path d="M164.616137 726.689487l100.146699-5.007335v-12.518338H160.860636l3.755501 17.525673z" fill="#E6E6E6" p-id="1987"></path><path d="M160.860636 707.286064h103.9022v14.333496H160.860636z" fill="#C2EFC3" p-id="1988"></path><path d="M160.860636 707.286064h12.518337v14.333496h-12.518337zM255.374083 707.286064h9.388753v14.333496h-9.388753z" fill="#AED6AE" p-id="1989"></path><path d="M276.655257 682.875306v20.655256l-18.15159 2.503668-1.87775-19.403423 3.755501-3.129585 16.273839-0.625916z" fill="#D0D1D7" p-id="1990"></path><path d="M277.90709 682.249389l-17.525672 1.251833-1.877751 1.877751 19.403423-1.251834v-1.87775zM260.381418 708.537897l17.525672-3.755501v-1.877751l-19.403423 3.129585 1.877751 2.503667z" fill="#B7B6D8" p-id="1991"></path><path d="M165.242054 711.041565l95.139364-0.625917v-23.158924H165.242054v23.784841z" fill="#E6E6E6" p-id="1992"></path><path d="M165.242054 683.501222h95.765281v25.099267H165.242054z" fill="#B7B6D8" p-id="1993"></path><path d="M174.630807 683.501222h21.90709v25.099267h-21.90709z" fill="#EBECED" p-id="1994"></path><path d="M245.98533 687.882641h10.01467v16.148655h-10.01467z" fill="#FFFFFF" p-id="1995"></path><path d="M294.806846 621.535452h34.425428v115.231296h-34.425428z" fill="#9ED9DB" p-id="1996"></path><path d="M311.706601 621.535452h16.899756v115.231296h-16.899756z" fill="#91C6C6" p-id="1997"></path><path d="M294.806846 712.919315h34.425428v6.008802h-34.425428z" fill="#EFEFEF" p-id="1998"></path><path d="M311.706601 712.919315h16.899756v6.008802h-16.899756z" fill="#C9C9C9" p-id="1999"></path><path d="M294.806846 635.93154h34.425428v6.008802h-34.425428z" fill="#EFEFEF" p-id="2000"></path><path d="M311.706601 635.93154h16.899756v6.008802h-16.899756z" fill="#C9C9C9" p-id="2001"></path><path d="M329.069535 736.60401l0.250367-141.457213 12.393154 0.018778-0.250367 141.457212z" fill="#F2ACAA" p-id="2002"></path><path d="M335.334963 736.610269l0.244108-141.457213 6.196577 0.006259-0.250367 141.457213z" fill="#D89E9E" p-id="2003"></path><path d="M331.642054 695.299756l0.106406-59.462103 6.196577 0.006259-0.106406 59.462103z" fill="#EFEFEF" p-id="2004"></path><path d="M335.397555 695.925672l0.106406-60.088019 3.129584 0.006259-0.106406 60.08802z" fill="#C9C9C9" p-id="2005"></path><path d="M341.60665 735.978093l0.250367-141.457213 12.393154 0.018778-0.250367 141.457212z" fill="#F2ACAA" p-id="2006"></path><path d="M347.872078 736.610269l0.250367-141.457213 6.196577 0.006259-0.250367 141.457213z" fill="#D89E9E" p-id="2007"></path><path d="M343.690954 693.891443v-59.462103h6.196577v59.462103z" fill="#EFEFEF" p-id="2008"></path><path d="M347.940929 695.925672l0.106406-60.088019 3.129584 0.006259-0.106406 60.08802z" fill="#C9C9C9" p-id="2009"></path><path d="M374.298289 736.704156l-11.892421-1.251833 14.396088-136.449878 11.892421 1.251834-14.396088 136.449877z" fill="#EFEFEF" p-id="2010"></path><path d="M374.298289 736.704156l-6.259169-0.625916 14.396088-136.449878 6.259169 0.625917-14.396088 136.449877z" fill="#DDD9D9" p-id="2011"></path><path d="M375.550122 696.645477l-6.259168-0.625917 6.259168-57.584352 6.259169 0.625917-6.259169 57.584352z" fill="#5D7F60" p-id="2012"></path><path d="M375.550122 696.645477l-3.129584-0.625917 6.259169-57.584352 3.129584 0.625917-6.259169 57.584352z" fill="#5D7F60" p-id="2013"></path><path d="M389.94621 599.628362h14.396088v137.952078h-14.396088z" fill="#C0EAFF" p-id="2014"></path><path d="M151.471883 883.168704h18.777506v104.277751h-18.777506z" fill="#E6C697" p-id="2015"></path><path d="M189.026895 860.635697h-18.777506v125.809291h36.929095v-125.809291h-18.151589z" fill="#EFB1C4" p-id="2016"></path><path d="M151.471883 880.665037h18.777506v28.416626h-18.777506z" fill="#ECA629" p-id="2017"></path><path d="M170.249389 896.312958h36.929095v48.758925h-36.929095z" fill="#BFD7D8" p-id="2018"></path><path d="M207.804401 851.246944h18.777506v135.448411h-18.777506z" fill="#EAEAEA" p-id="2019"></path><path d="M214.06357 870.650367h5.007335v74.859657h-5.007335z" fill="#F2ACAA" p-id="2020"></path><path d="M259.755501 987.070905l-14.396088-3.129585L281.662592 864.391198l14.396088 3.129584-36.303179 119.550123z" fill="#FFFFFF" p-id="2021"></path><path d="M292.929095 878.161369H331.735941v108.659169h-38.806846z" fill="#F2ACAA" p-id="2022"></path><path d="M292.929095 903.198044H331.735941v59.149144h-38.806846z" fill="#FFFFFF" p-id="2023"></path><path d="M332.361858 863.765281h17.525673v123.18044h-17.525673z" fill="#EDC885" p-id="2024"></path><path d="M350.513447 879.413203h17.525673v107.59511H350.513447z" fill="#9ED9DB" p-id="2025"></path><path d="M312.332518 927.608802l-10.01467-8.762836 10.01467-8.13692 10.01467 8.13692-10.01467 8.762836z" fill="#F2ACAA" p-id="2026"></path><path d="M367.413203 836.850856h36.929095v149.969682h-36.929095z" fill="#ADD8AD" p-id="2027"></path></svg>